<?xml version="1.0" standalone="no"?>
<svg xmlns="http://www.w3.org/2000/svg" viewBox="109 70 789 789">
  <path d="M244 70Q210 70 185.0 78.5Q160 87 143 104Q126 120 117.5 145.0Q109 170 109 203V726Q109 759 117.5 784.0Q126 809 143 826Q160 842 185.0 850.5Q210 859 244 859H764Q797 859 822.5 850.5Q848 842 864 826Q881 809 889.5 784.0Q898 759 898 726V203Q898 170 889.5 145.0Q881 120 864 104Q848 87 822.5 78.5Q797 70 764 70H244ZM245 139H763Q779 139 791.0 143.5Q803 148 812 156Q821 164 825.0 177.0Q829 190 829 206V722Q829 739 825.0 751.5Q821 764 812 773Q803 782 791.0 786.0Q779 790 763 790H245Q229 790 216.5 786.0Q204 782 195 773Q187 764 182.5 751.5Q178 739 178 722V206Q178 190 182.5 177.0Q187 164 195 156Q204 148 216.5 143.5Q229 139 245 139ZM504 388Q488 388 479.5 396.5Q471 405 470 422L465 648Q464 656 467.0 663.0Q470 670 475 675Q480 681 487.5 683.5Q495 686 504 686Q512 686 519.0 683.0Q526 680 532 675Q538 669 540.5 662.5Q543 656 543 648L537 422Q536 405 528.0 396.5Q520 388 504 388ZM504 248Q495 248 486.5 251.5Q478 255 471 261Q465 268 461.5 276.0Q458 284 458 293Q458 302 461.5 310.0Q465 318 471 324Q478 331 486.5 334.5Q495 338 504 338Q513 338 521.5 334.5Q530 331 537 325Q543 318 546.5 310.0Q550 302 550 293Q550 284 546.5 276.0Q543 268 536 261Q529 255 521.0 251.5Q513 248 504 248Z" />
</svg>
