<?xml version="1.0" standalone="no"?>
<svg xmlns="http://www.w3.org/2000/svg" viewBox="77 -45 874 874">
  <path d="M514 -45Q469 -45 426.5 -36.5Q384 -28 344 -11Q305 6 270.0 29.5Q235 53 205 83Q175 113 151.5 147.5Q128 182 111 222Q94 262 85.5 304.0Q77 346 77 392Q77 437 85.5 479.5Q94 522 111 561Q128 601 151.5 636.0Q175 671 205 701Q235 731 270.0 754.5Q305 778 344 795Q384 812 426.5 820.5Q469 829 514 829Q559 829 601.5 820.5Q644 812 684 795Q723 778 758.0 754.5Q793 731 823 701Q853 671 876.5 636.0Q900 601 917 561Q934 522 942.5 479.5Q951 437 951 392Q951 346 942.5 304.0Q934 262 917 222Q900 182 876.5 147.5Q853 113 823 83Q793 53 758.0 29.5Q723 6 684 -11Q644 -28 601.5 -36.5Q559 -45 514 -45ZM514 27Q552 27 587.0 34.5Q622 42 655 56Q688 70 717.0 89.5Q746 109 771 134Q797 159 816.5 188.0Q836 217 850 250Q864 283 871.0 318.5Q878 354 878 392Q878 429 871.0 464.5Q864 500 850 533Q836 566 816.5 595.0Q797 624 771 649Q746 674 717.0 694.0Q688 714 655 728Q622 742 587.0 749.0Q552 756 514 756Q476 756 440.5 749.0Q405 742 372 728Q339 714 310.0 694.0Q281 674 256 649Q231 624 211.5 595.0Q192 566 178 533Q164 500 157.0 464.5Q150 429 150 392Q150 354 157.0 318.5Q164 283 178 250Q192 217 211.5 188.0Q231 159 256 134Q281 109 310.0 89.5Q339 70 372 56Q405 42 440.5 34.5Q476 27 514 27ZM423 213Q417 213 412.0 214.5Q407 216 402 220Q398 223 395.5 229.0Q393 235 393 243V286H297Q289 286 283.0 288.5Q277 291 272 296Q267 301 264.5 307.0Q262 313 262 321Q262 330 264.5 340.5Q267 351 271 362L348 528Q351 535 354.5 540.5Q358 546 361 551Q365 555 369.5 559.0Q374 563 379 565Q384 568 390.5 569.0Q397 570 405 570Q415 570 423.5 567.0Q432 564 438 558Q445 552 448.5 543.5Q452 535 452 524V336H467Q474 336 478.5 334.0Q483 332 486 329Q489 325 490.5 321.0Q492 317 492 312Q492 306 490.5 301.5Q489 297 486 293Q483 290 478.0 288.0Q473 286 467 286H452V243Q452 236 449.5 230.0Q447 224 443 220Q439 217 434.0 215.0Q429 213 423 213ZM394 335V516H393L315 338V335H394ZM618 338Q604 338 592.5 342.0Q581 346 571 354Q562 362 555.0 372.5Q548 383 543 396Q539 409 536.5 422.5Q534 436 534 451Q534 468 537.0 483.0Q540 498 546 512Q552 526 561.0 537.0Q570 548 581 556Q593 565 607.0 569.0Q621 573 637 573Q653 573 666.5 569.0Q680 565 691 557Q702 549 710.5 538.5Q719 528 726 514Q732 501 736.5 486.5Q741 472 744 457Q747 441 748.5 425.5Q750 410 750 395Q750 379 748.5 362.5Q747 346 744 329Q741 313 736.5 298.0Q732 283 726 270Q720 256 711.0 245.0Q702 234 691 226Q680 218 666.5 214.0Q653 210 636 210Q620 210 605.5 214.0Q591 218 579 226Q566 234 558.0 245.0Q550 256 547 270Q546 272 545.5 274.0Q545 276 545 278Q545 280 544.5 281.5Q544 283 544 285Q544 291 545.5 295.5Q547 300 550 304Q553 308 558.0 310.0Q563 312 570 312Q579 312 586.0 307.0Q593 302 597 292Q600 285 604.0 279.5Q608 274 613 269Q618 265 624.0 262.5Q630 260 637 260Q646 260 653.5 263.5Q661 267 666 274Q671 281 675.0 290.0Q679 299 682 309Q685 320 686.5 330.5Q688 341 689 353Q690 364 690.5 374.0Q691 384 691 393Q691 394 691.0 394.5Q691 395 691 396Q691 396 691.0 397.0Q691 398 691 398H690Q686 384 679.5 373.0Q673 362 663 354Q654 346 643.0 342.0Q632 338 618 338ZM638 385Q645 385 651.5 387.5Q658 390 663 395Q668 400 672.0 406.5Q676 413 678 421Q681 429 682.0 437.0Q683 445 683 453Q683 461 682.0 469.0Q681 477 678 485Q676 493 672.5 500.0Q669 507 664 512Q659 518 652.5 520.5Q646 523 638 523Q630 523 624.0 520.5Q618 518 613 513Q608 507 604.0 500.5Q600 494 598 486Q595 478 594.0 470.0Q593 462 593 453Q593 446 594.0 438.0Q595 430 597 422Q600 414 603.5 407.5Q607 401 612 396Q617 390 623.5 387.5Q630 385 638 385Z" />
</svg>
