<?xml version="1.0" standalone="no"?>
<svg xmlns="http://www.w3.org/2000/svg" viewBox="77 -45 874 874">
  <path d="M514 -45Q469 -45 426.5 -36.5Q384 -28 344 -11Q305 6 270.0 29.5Q235 53 205 83Q175 113 151.5 148.0Q128 183 111 222Q94 262 85.5 304.0Q77 346 77 392Q77 437 85.5 479.5Q94 522 111 561Q128 601 151.5 636.0Q175 671 205 701Q235 731 270.0 754.5Q305 778 344 795Q384 812 426.5 820.5Q469 829 514 829Q559 829 601.5 820.5Q644 812 684 795Q723 778 758.0 754.5Q793 731 823 701Q853 671 876.5 636.0Q900 601 917 561Q934 522 942.5 479.5Q951 437 951 392Q951 346 942.5 304.0Q934 262 917 222Q900 183 876.5 148.0Q853 113 823 83Q793 53 758.0 29.5Q723 6 684 -11Q644 -28 601.5 -36.5Q559 -45 514 -45ZM514 184Q542 184 567.0 191.0Q592 198 614 211Q635 224 652.0 243.0Q669 262 681 285Q693 309 699.0 336.5Q705 364 705 396Q705 427 699.0 454.5Q693 482 681 506Q669 530 652.0 548.5Q635 567 614 580Q592 594 567.0 600.5Q542 607 514 607Q486 607 461.0 600.5Q436 594 414 580Q393 567 376.0 548.5Q359 530 347 506Q335 482 329.0 454.5Q323 427 323 396Q323 364 329.0 336.5Q335 309 347 285Q359 262 376.0 243.0Q393 224 414 211Q436 198 461.0 191.0Q486 184 514 184ZM514 240Q496 240 480.0 245.0Q464 250 450 259Q437 269 426.5 282.5Q416 296 408 314Q401 331 397.5 351.5Q394 372 394 396Q394 419 397.5 439.5Q401 460 408 477Q416 495 426.5 508.5Q437 522 450 532Q464 542 480.0 547.0Q496 552 514 552Q532 552 548.0 547.0Q564 542 578 532Q591 522 601.5 508.5Q612 495 620 477Q627 460 631.0 439.5Q635 419 635 396Q635 372 631.0 351.5Q627 331 620 314Q612 296 601.5 282.5Q591 269 578 259Q564 250 548.0 245.0Q532 240 514 240Z" />
</svg>
