<?xml version="1.0" standalone="no"?>
<svg xmlns="http://www.w3.org/2000/svg" viewBox="96 158 824 608">
  <path d="M213 158Q184 158 162.0 165.5Q140 173 125 187Q110 202 103.0 223.5Q96 245 96 274V650Q96 679 103.0 700.5Q110 722 125 737Q140 751 162.0 758.5Q184 766 213 766H802Q832 766 854.0 758.5Q876 751 891 737Q905 722 912.5 700.5Q920 679 920 650V274Q920 246 912.5 224.0Q905 202 891 187Q876 173 854.0 165.5Q832 158 803 158ZM214 219H801Q815 219 826.0 222.5Q837 226 844 234Q852 241 855.5 252.0Q859 263 859 278V646Q859 661 855.5 672.0Q852 683 844 691Q837 698 826.0 702.0Q815 706 801 706H214Q200 706 189.5 702.0Q179 698 171 691Q164 683 160.0 672.0Q156 661 156 647V278Q156 263 160.0 252.0Q164 241 171 234Q179 226 189.5 222.5Q200 219 214 219ZM601 535Q592 535 584.5 538.0Q577 541 570 547Q564 554 561.0 562.0Q558 570 558 579Q558 588 561.0 595.5Q564 603 570 609Q577 616 584.5 619.0Q592 622 601 622Q610 622 618.0 619.0Q626 616 632 609Q639 603 642.0 595.5Q645 588 645 579Q645 570 642.0 562.0Q639 554 632 547Q626 541 618.5 538.0Q611 535 601 535ZM730 535Q722 535 714.0 538.0Q706 541 699 547Q693 554 690.0 562.0Q687 570 687 579Q687 588 690.0 595.5Q693 603 699 609Q706 616 713.5 619.0Q721 622 730 622Q739 622 747.0 619.0Q755 616 761 609Q768 603 771.0 595.5Q774 588 774 579Q774 570 771.0 562.0Q768 554 761 547Q755 541 747.5 538.0Q740 535 730 535ZM602 419Q592 419 584.5 422.0Q577 425 570 432Q564 438 561.0 446.0Q558 454 558 463Q558 472 561.0 479.5Q564 487 570 493Q577 500 584.5 503.5Q592 507 601 507Q610 507 618.0 503.5Q626 500 632 494Q639 487 642.0 479.5Q645 472 645 463Q645 454 642.0 446.0Q639 438 632 432Q626 425 618.5 422.0Q611 419 602 419ZM730 419Q722 419 714.0 422.0Q706 425 699 432Q693 438 690.0 446.0Q687 454 687 463Q687 472 690.0 479.5Q693 487 699 493Q706 500 713.5 503.5Q721 507 730 507Q739 507 747.0 503.5Q755 500 761 494Q768 487 771.0 479.5Q774 472 774 463Q774 454 771.0 446.0Q768 438 761 432Q755 425 747.5 422.0Q740 419 730 419ZM602 303Q592 303 584.5 306.0Q577 309 570 316Q564 322 561.0 330.0Q558 338 558 347Q558 356 561.0 363.5Q564 371 570 378Q577 384 584.5 387.5Q592 391 601 391Q610 391 618.0 387.5Q626 384 632 378Q639 371 642.0 363.5Q645 356 645 347Q645 338 642.0 330.0Q639 322 632 316Q626 309 618.5 306.0Q611 303 602 303ZM730 303Q722 303 714.0 306.0Q706 309 699 316Q693 322 690.0 330.0Q687 338 687 347Q687 356 690.0 363.5Q693 371 699 378Q706 384 713.5 387.5Q721 391 730 391Q739 391 747.0 387.5Q755 384 761 378Q768 371 771.0 363.5Q774 356 774 347Q774 338 771.0 330.0Q768 322 761 316Q755 309 747.5 306.0Q740 303 730 303ZM368 309Q344 309 325.0 316.0Q306 323 291 337Q277 352 269.5 370.0Q262 388 262 411Q262 423 264.0 433.5Q266 444 270 454Q273 464 277.0 472.5Q281 481 284 489Q290 503 298.0 517.5Q306 532 315 547Q325 563 334.0 578.0Q343 593 352 606Q355 611 359.0 613.5Q363 616 367 616Q372 616 376.0 613.5Q380 611 383 606Q392 593 401.0 578.0Q410 563 420 547Q429 532 437.0 517.5Q445 503 451 489Q454 481 458.0 472.5Q462 464 465 454Q469 444 471.0 433.5Q473 423 473 411Q473 389 465.5 370.5Q458 352 444 338Q429 323 410.0 316.0Q391 309 367 309Z" />
</svg>
