<?xml version="1.0" standalone="no"?>
<svg xmlns="http://www.w3.org/2000/svg" viewBox="141.44444444444446 -51 748.960960960961 916">
  <path d="M712 495H564Q557 495 552.5 497.0Q548 499 545 504Q543 509 543.5 514.0Q544 519 548 525L620 643Q624 649 628.0 652.0Q632 655 638 655Q644 655 648.5 652.0Q653 649 656 643L728 525Q732 519 732.5 514.0Q733 509 731 504Q728 499 723.5 497.0Q719 495 712 495ZM712 109Q719 109 723.5 106.5Q728 104 731 99Q733 95 732.5 89.5Q732 84 728 78L656 -40Q653 -46 648.5 -48.5Q644 -51 638 -51Q632 -51 628.0 -48.5Q624 -46 620 -40L548 78Q544 84 543.5 89.5Q543 95 545 100Q548 104 552.5 106.5Q557 109 564 109H712ZM885 301Q877 274 869.5 252.5Q862 231 853 216Q845 201 835.0 190.0Q825 179 814 172Q802 166 787.5 163.0Q773 160 756 160H367Q349 160 333.5 164.5Q318 169 306 179Q294 189 285.5 203.5Q277 218 273 237L147 745Q142 766 141.5 783.0Q141 800 145 813Q149 826 156.0 836.0Q163 846 173 852Q182 859 193.0 862.0Q204 865 216 865Q228 865 239.5 862.0Q251 859 263 853Q274 847 284.0 838.0Q294 829 302 818Q310 806 314.5 792.0Q319 778 321 762Q323 745 320.5 726.5Q318 708 310 688L301 728Q319 718 335.5 705.5Q352 693 365 677Q379 661 390.0 642.5Q401 624 409 603Q417 582 422.5 559.0Q428 536 430 511Q433 486 432.5 459.5Q432 433 428 405L416 421Q442 427 471.0 431.0Q500 435 532 438Q564 441 596.5 442.5Q629 444 661 444Q728 444 775.0 435.5Q822 427 850 410Q878 393 886.5 366.0Q895 339 885 301Z" />
</svg>
